<svg class="Layer_1" data-name="Layer 1" xmlns="http://www.w3.org/2000/svg" viewBox="0 0 18290 7010"><defs><style>.cls-1{fill:#0b36a8;}.cls-2{fill:#fff;}</style></defs><title>logo</title><g id="l2XBHVtPTtWliRh6rYlyWXl" fill="rgb(255,255,255)" style="transform: none;"><g><path id="p19oSLOnJE" d="M5367 4716 c-68 -25 -118 -67 -348 -296 -273 -271 -414 -434 -696 -802 l-120 -157 -53 147 c-71 199 -211 552 -261 657 -47 99 -56 105 -160 105 -80 0 -108 -12 -160 -67 -75 -78 -75 -99 -8 -298 27 -82 54 -178 59 -212 4 -34 11 -67 15 -73 3 -5 40 -10 81 -10 l75 0 20 -47 c12 -27 58 -144 104 -262 l83 -214 -34 -66 c-38 -73 -45 -139 -19 -165 9 -9 35 -20 58 -26 23 -6 50 -13 59 -16 12 -4 28 -39 52 -117 53 -171 68 -228 63 -233 -3 -3 -68 26 -145 65 -139 70 -211 121 -312 222 -100 100 -106 126 -64 277 16 59 24 112 22 145 l-3 52 -92 3 c-106 3 -108 2 -174 -108 -75 -126 -121 -247 -127 -331 -7 -111 6 -139 107 -239 150 -150 407 -301 700 -409 73 -28 141 -57 151 -66 10 -9 25 -46 35 -83 9 -37 21 -72 27 -79 7 -8 36 -13 81 -13 l70 0 43 47 43 47 115 -23 c218 -43 372 -38 448 12 18 13 50 47 71 77 21 30 68 87 105 125 99 103 107 124 107 275 l0 125 -41 86 c-100 209 -298 439 -434 507 -49 24 -69 27 -172 30 -82 3 -132 -1 -167 -11 l-50 -15 62 82 c342 452 776 914 936 995 l38 20 44 -30 c42 -28 49 -29 134 -27 l90 3 0 60 c0 54 -5 69 -44 135 -57 96 -144 184 -197 199 -53 15 -171 13 -217 -3z m-682 -1690 c148 -98 319 -328 369 -496 16 -53 16 -55 -6 -99 -16 -31 -35 -51 -63 -65 -79 -41 -276 -18 -432 50 -47 20 -53 27 -63 66 -45 173 -67 252 -106 385 -60 204 -63 198 116 197 l130 -1 55 -37z"></path><path id="pykz4YYbj" d="M8715 4699 c-92 -8 -146 -23 -228 -66 -166 -87 -261 -250 -281 -480 l-6 -63 159 0 159 0 6 28 c2 15 7 47 11 72 9 67 62 159 112 194 34 24 55 30 115 34 133 8 199 -27 254 -135 l29 -58 3 -797 3 -798 160 0 160 0 -4 823 c-2 739 -4 827 -20 870 -93 268 -320 403 -632 376z"></path><path id="p1FNYf1bnF" d="M10405 4696 c-243 -51 -426 -188 -536 -398 -69 -133 -99 -266 -99 -438 1 -422 242 -731 630 -806 179 -34 407 -7 552 67 293 149 440 449 402 818 l-7 61 -623 0 -624 0 0 24 c0 36 37 146 63 188 66 109 194 195 325 218 97 18 220 2 299 -38 70 -36 149 -118 182 -189 l24 -53 168 0 168 0 -24 70 c-82 241 -261 404 -511 466 -82 20 -313 26 -389 10z m619 -1018 c-7 -62 -61 -180 -102 -224 -44 -47 -116 -93 -180 -115 -76 -26 -213 -35 -283 -19 -184 44 -323 189 -354 373 l-6 37 466 0 466 0 -7 -52z"></path><path id="pNeflFuvV" d="M14755 4701 c-148 -18 -287 -82 -388 -180 -76 -74 -122 -158 -142 -262 -8 -44 -15 -83 -15 -85 0 -2 74 -4 163 -4 l164 0 16 58 c23 83 67 133 152 173 65 30 76 33 175 32 95 0 110 -3 164 -29 74 -36 114 -89 123 -161 12 -109 -55 -155 -357 -242 -278 -79 -384 -131 -469 -227 -141 -160 -127 -408 31 -560 71 -69 124 -101 227 -135 106 -36 286 -49 397 -29 271 49 440 220 469 473 l6 57 -159 0 -159 0 -13 -57 c-17 -77 -61 -136 -129 -175 -53 -29 -62 -31 -171 -31 -106 -1 -119 1 -167 26 -70 36 -105 89 -105 157 0 102 73 165 257 221 385 117 469 153 548 238 59 63 88 120 102 204 31 174 -56 353 -217 449 -99 59 -199 86 -332 92 -61 2 -138 1 -171 -3z"></path><path id="putvT5fvR" d="M1999 4677 c-75 -21 -236 -130 -294 -199 -25 -29 -27 -38 -22 -91 3 -33 10 -64 15 -69 6 -6 46 -8 94 -6 72 3 95 9 176 46 50 23 99 42 108 42 28 0 138 -123 199 -221 243 -392 513 -1229 542 -1680 5 -82 3 -99 -12 -123 -21 -31 -64 -56 -98 -56 -65 0 -231 139 -339 284 -64 85 -151 254 -170 328 -14 56 -2 89 63 174 30 40 39 60 39 91 0 59 -13 65 -127 61 -91 -3 -101 -5 -143 -35 -54 -38 -118 -99 -157 -149 -26 -35 -28 -43 -28 -133 1 -104 18 -168 77 -279 105 -197 364 -482 502 -552 53 -27 69 -30 148 -30 112 0 319 40 391 76 90 45 157 102 179 151 40 91 35 337 -13 593 -92 490 -353 1197 -555 1508 -70 107 -178 220 -241 253 -42 21 -63 24 -168 26 -73 2 -138 -3 -166 -10z"></path><path id="p1E9sEPqrf" d="M11690 3870 l0 -810 160 0 160 0 0 103 c0 101 1 102 17 69 26 -54 98 -109 186 -142 101 -40 167 -51 288 -51 271 0 489 133 587 356 59 136 62 170 62 755 l0 530 -154 0 -154 0 -5 -512 c-3 -350 -8 -527 -16 -557 -45 -169 -149 -264 -318 -292 -190 -31 -378 58 -445 211 -45 102 -47 129 -48 653 l0 497 -160 0 -160 0 0 -810z"></path><path id="pDZeV1t3S" d="M13570 3870 l0 -810 160 0 160 0 0 810 0 810 -160 0 -160 0 0 -810z"></path><path id="pPV1tTzNs" d="M15830 3595 l0 -1085 160 0 160 0 0 378 c0 348 1 375 16 347 50 -97 182 -164 373 -190 361 -48 665 155 737 495 11 51 14 183 14 603 l0 537 -154 0 -154 0 -5 -512 c-3 -350 -8 -527 -16 -557 -45 -169 -149 -264 -318 -292 -190 -31 -378 58 -445 211 -45 102 -47 129 -48 653 l0 497 -160 0 -160 0 0 -1085z"></path><path id="p7b6Lnony" d="M13689 2850 c-79 -14 -138 -73 -157 -158 -47 -209 244 -327 365 -148 24 35 28 51 27 111 0 57 -5 77 -24 106 -45 68 -130 104 -211 89z"></path></g></g><g id="l33q26HtbqOUZ82oSUqgagy" fill="rgb(195,195,195)" style="transform: none;"><g></g></g><g id="l4qxyYjAOZJmtJvraQ6z0H0" fill="rgb(63,72,203)" style="transform: none;"><g><path id="p15coPVEMA" d="M3440 6454 c-8 -2 -62 -8 -120 -14 -58 -6 -143 -17 -190 -26 -47 -8 -107 -19 -135 -23 -75 -13 -314 -78 -413 -112 -148 -52 -431 -186 -555 -262 -332 -204 -643 -485 -860 -777 -249 -336 -426 -710 -516 -1090 -57 -242 -65 -291 -91 -548 -18 -180 -10 -383 21 -557 6 -33 12 -69 14 -80 32 -242 123 -545 244 -811 150 -331 336 -595 622 -884 184 -186 337 -306 565 -447 207 -127 541 -267 789 -331 215 -56 306 -72 495 -87 25 -2 81 -9 125 -16 177 -26 665 28 948 106 148 40 371 124 531 199 511 241 994 687 1290 1191 84 145 195 385 250 542 46 134 126 452 130 523 2 30 9 79 15 109 6 29 16 137 22 240 11 189 2 387 -23 491 -6 25 -12 70 -14 100 -4 66 -91 413 -135 536 -109 308 -272 610 -461 850 -47 60 -161 186 -254 280 -331 336 -687 561 -1151 728 -73 27 -163 53 -228 67 -22 4 -60 13 -85 19 -25 6 -65 15 -90 19 -25 4 -56 13 -68 20 -13 7 -35 10 -48 7 -13 -4 -49 1 -78 9 -30 9 -69 15 -87 14 -19 -1 -72 4 -119 10 -77 10 -304 14 -340 5z m2114 -1765 c78 -22 236 -220 239 -301 l2 -33 -58 -3 c-51 -3 -65 1 -106 27 -56 36 -87 38 -141 11 -97 -49 -378 -320 -595 -572 -221 -257 -497 -619 -483 -634 3 -3 47 17 98 43 l92 48 111 0 c102 0 117 -3 167 -27 136 -68 334 -298 434 -507 39 -82 41 -90 41 -181 -1 -117 -14 -148 -107 -245 -37 -38 -84 -95 -105 -125 -90 -128 -178 -143 -486 -83 l-138 27 -48 -52 c-43 -46 -52 -52 -88 -52 -22 0 -45 6 -51 13 -6 7 -18 42 -27 79 -10 37 -25 74 -35 83 -10 9 -78 38 -151 66 -293 108 -550 259 -700 409 -95 95 -115 133 -106 209 10 82 126 325 187 389 17 18 32 22 81 22 47 0 61 -4 66 -17 4 -9 -5 -63 -20 -119 -33 -123 -35 -215 -8 -260 10 -17 42 -54 71 -83 110 -110 173 -153 345 -238 94 -45 176 -83 183 -83 6 0 12 6 12 13 0 18 -46 186 -86 314 l-34 112 -43 11 c-118 30 -123 42 -68 151 l41 80 -36 97 c-70 188 -166 427 -180 449 -13 20 -19 21 -82 16 -48 -4 -71 -2 -76 6 -4 6 -12 40 -16 74 -5 34 -32 131 -60 214 -57 171 -57 167 9 236 46 50 80 67 130 67 71 0 86 -12 130 -104 53 -112 178 -425 260 -656 37 -102 71 -185 76 -185 9 0 33 31 245 306 186 242 367 447 600 679 129 129 254 248 277 263 79 54 155 69 237 46z m-3251 -58 c63 -33 171 -146 241 -253 119 -183 273 -534 391 -893 175 -532 246 -992 176 -1150 -21 -47 -90 -105 -178 -149 -62 -31 -276 -76 -361 -76 -110 0 -221 78 -404 284 -190 214 -291 403 -292 547 -1 57 3 70 27 103 39 50 103 111 157 149 41 29 52 32 119 32 101 0 110 -14 54 -87 -23 -29 -52 -75 -64 -101 -23 -48 -23 -48 -6 -115 23 -92 105 -254 175 -348 113 -151 262 -274 351 -289 49 -8 115 18 143 57 19 28 20 39 15 157 -10 229 -82 567 -191 896 -159 480 -325 822 -470 970 -80 81 -102 86 -198 45 -145 -63 -170 -71 -216 -68 -43 3 -46 5 -55 37 -7 28 -5 39 11 60 25 35 124 114 197 159 80 49 133 62 240 59 72 -2 99 -7 138 -26z"></path><path id="piDdUGwJN" d="M4357 3118 c-65 -88 -65 -68 -9 -260 44 -152 69 -240 112 -406 10 -38 17 -46 58 -64 138 -62 362 -95 457 -68 95 27 139 105 117 208 -36 170 -222 428 -385 533 l-61 40 -112 -7 -113 -7 -19 32 -20 33 -25 -34z"></path></g></g></svg>